<?xml version="1.0" encoding="UTF-8"?>
<svg xmlns="http://www.w3.org/2000/svg" xmlns:xlink="http://www.w3.org/1999/xlink" width="3750" height="3750" viewBox="0 0 3750 3750">
<rect x="-375" y="-375" width="4500" height="4500" fill="rgb(100%, 100%, 100%)" fill-opacity="1"/>
<path fill-rule="nonzero" fill="rgb(0%, 0%, 0%)" fill-opacity="1" d="M 1629.988281 375.070312 C 1604.671875 375.070312 1579.460938 378.949219 1554.910156 385.96875 C 1358.519531 442.078125 1316.390625 731.980469 1040.5 741.339844 C 1040.5 741.339844 1096.109375 796.871094 1167.019531 790.988281 C 1110.390625 800.949219 937.617188 841.191406 890.890625 965.808594 C 834.773438 1115.449219 886.230469 1176.238281 886.230469 1176.238281 C 886.230469 1176.238281 858.167969 1255.71875 853.492188 1372.621094 C 848.8125 1489.53125 881.515625 1704.640625 881.515625 1704.640625 C 881.515625 1704.640625 983.488281 1727.351562 1030.910156 1893.921875 C 1030.859375 1893.921875 1005.429688 2132.550781 1005.429688 2183.929688 C 1005.429688 2235.371094 1010.148438 2420.109375 1010.148438 2420.109375 L 1028.851562 2338.261719 C 1028.851562 2338.261719 1042.941406 2554.96875 1082.628906 2700.460938 C 1122.308594 2845.949219 1466.191406 3255.964844 1499.25 3275.800781 C 1532.320312 3295.648438 1955.558594 3315.484375 1955.558594 3315.484375 L 1875.011719 3375 C 1875.011719 3375 2480.789062 3135.515625 2541.578125 2925.09375 C 2602.378906 2714.660156 2602.351562 2485.53125 2602.351562 2485.53125 C 2602.351562 2485.53125 2541.570312 2667.941406 2476.101562 2789.515625 C 2476.101562 2789.515625 2443.359375 2705.339844 2443.359375 2653.898438 C 2443.359375 2653.898438 2387.28125 2747.421875 2363.890625 2794.183594 C 2363.890625 2794.183594 2391.910156 2588.421875 2340.480469 2480.871094 C 2289.039062 2373.308594 2223.609375 2345.238281 2223.609375 2345.238281 L 2256.351562 2415.390625 C 2256.351562 2415.390625 2155.808594 2349.960938 2080.988281 2314.890625 L 2087.988281 2352.289062 L 2024.839844 2303.179688 C 2024.839844 2303.179688 1964.050781 2310.210938 1938.328125 2335.921875 L 1954.691406 2305.511719 C 1954.691406 2305.511719 1765.320312 2310.121094 1723.238281 2340.589844 C 1681.148438 2370.96875 1748.980469 2305.511719 1748.980469 2305.511719 C 1748.980469 2305.511719 1606.359375 2363.941406 1538.558594 2415.390625 C 1470.75 2466.828125 1445 2702.988281 1409.929688 2710 C 1409.929688 2710 1365.539062 2607.121094 1381.898438 2429.429688 C 1381.898438 2429.429688 1302.390625 2553.339844 1300.050781 2625.820312 C 1300.050781 2625.820312 1253.320312 2399.050781 1255.660156 2317.230469 C 1257.988281 2235.390625 1213.539062 2394.359375 1211.210938 2448.121094 C 1208.871094 2501.910156 1166.789062 2349.949219 1138.730469 2247.078125 C 1110.730469 2144.421875 1079.460938 1911.398438 1079.320312 1910.410156 C 1101.058594 1767.53125 1130.058594 1580.328125 1138.730469 1545.648438 C 1152.761719 1489.539062 1264.980469 1358.589844 1264.980469 1358.589844 L 1166.808594 1419.359375 C 1166.808594 1419.359375 1232.289062 1293.101562 1269.691406 1260.359375 C 1269.691406 1260.359375 1255.621094 1232.308594 1162.089844 1260.359375 L 1353.820312 993.839844 L 1255.660156 1012.539062 C 1255.660156 1012.539062 1508.160156 928.371094 1554.929688 886.28125 C 1601.691406 844.199219 1685.839844 806.820312 1685.839844 806.820312 L 1849.539062 806.820312 C 1900.980469 806.820312 2073.960938 774.050781 2158.128906 820.808594 C 2242.308594 867.570312 2326.5 961.101562 2326.5 961.101562 L 2345.199219 914.371094 L 2363.898438 989.171875 L 2462.070312 956.429688 L 2429.378906 998.488281 C 2429.378906 998.488281 2499.519531 1031.261719 2536.929688 1092.058594 C 2574.328125 1152.851562 2723.929688 1442.769531 2723.929688 1442.769531 L 2681.871094 1405.371094 L 2681.871094 1667.230469 C 2681.871094 1779.460938 2677.21875 2219 2677.21875 2219 L 2728.660156 1980.488281 C 2728.660156 1980.488281 2784.761719 1737.359375 2784.761719 1709.300781 C 2784.761719 1681.25 2896.96875 1452.121094 2896.96875 1405.359375 C 2896.96875 1358.601562 2733.320312 1021.921875 2733.320312 1021.921875 C 2733.320312 1021.921875 2842.488281 965.78125 2842.488281 1045.28125 C 2842.488281 1045.28125 2878.25 947.109375 2691.199219 984.511719 C 2691.199219 984.511719 2700.570312 591.699219 2564.949219 619.761719 C 2564.949219 619.761719 2476.121094 535.578125 2420.011719 535.578125 C 2420.011719 535.578125 2550.921875 493.511719 2653.800781 582.351562 C 2653.800781 582.351562 2574.328125 432.699219 2382.609375 465.441406 L 2471.449219 423.371094 C 2471.449219 423.371094 2293.769531 315.808594 2148.808594 460.769531 C 2148.808594 460.769531 2153.46875 339.179688 1886.941406 409.328125 L 1989.828125 507.550781 C 1989.828125 507.550781 1807.230469 371.488281 1630.011719 375.070312 Z M 1878.851562 2469.21875 C 1961.789062 2469.21875 2091.789062 2492.710938 2118.390625 2513.609375 C 2151.121094 2539.328125 2232.921875 2611.78125 2232.921875 2611.78125 L 2190.859375 2555.679688 C 2190.859375 2555.679688 2279.71875 2567.539062 2291.410156 2632.921875 C 2303.101562 2698.300781 2286.691406 2810.546875 2286.691406 2810.546875 L 2235.308594 2787.136719 C 2235.308594 2787.136719 2242.300781 2864.316406 2207.230469 2918.097656 C 2172.160156 2971.878906 2020.160156 2829.25 2020.160156 2829.25 L 2020.160156 2892.347656 C 2020.160156 2892.347656 1943 2808.21875 1898.570312 2808.21875 C 1854.148438 2808.21875 1784.039062 2843.296875 1784.039062 2843.296875 L 1803.878906 2810.546875 C 1803.878906 2810.546875 1706.871094 2840.9375 1664.789062 2815.164062 C 1622.699219 2789.453125 1531.488281 2632.871094 1531.488281 2632.871094 L 1575.941406 2653.839844 L 1547.859375 2581.371094 C 1547.859375 2581.371094 1543.210938 2541.628906 1559.570312 2529.929688 C 1575.941406 2518.25 1655.460938 2487.820312 1655.460938 2487.820312 L 1622.71875 2518.230469 C 1622.71875 2518.230469 1765.300781 2490.199219 1830.769531 2473.839844 C 1843.039062 2470.789062 1859.710938 2469.320312 1878.839844 2469.21875 Z M 1878.851562 2469.21875 "/>
</svg>
