<?xml version="1.0" encoding="UTF-8"?>
<svg xmlns="http://www.w3.org/2000/svg" xmlns:xlink="http://www.w3.org/1999/xlink" width="4001" height="4001" viewBox="0 0 4001 4001">
<path fill-rule="evenodd" fill="rgb(100%, 100%, 100%)" fill-opacity="1" d="M 0.0507812 0.601562 L 4000.050781 0.601562 L 4000.050781 4000.605469 L 0.0507812 4000.605469 L 0.0507812 0.601562 "/>
<path fill-rule="evenodd" fill="rgb(0%, 0%, 0%)" fill-opacity="1" d="M 704.585938 1195.539062 C 739.082031 1149.910156 1022.078125 780.308594 1118.140625 810.398438 C 1433 909.019531 2308.449219 2070.128906 2712.910156 2339.960938 C 3019.039062 2544.191406 3337.878906 2677.648438 3292.578125 2926.25 C 3247.269531 3174.84375 3089.199219 3210.058594 3038.570312 3186.289062 C 3038.570312 3186.289062 2432.578125 2271.871094 2188.328125 2250.398438 C 1944.078125 2228.929688 1808.71875 2364.421875 1808.71875 2364.421875 L 1799.429688 2354.660156 C 1796.859375 2351.960938 1796.96875 2347.648438 1799.671875 2345.070312 L 2121 2039.390625 C 2123.699219 2036.820312 2123.808594 2032.511719 2121.238281 2029.808594 L 2115.058594 2023.308594 C 2112.519531 2020.640625 2108.300781 2020.488281 2105.570312 2022.980469 L 1776.640625 2323.128906 C 1773.921875 2325.609375 1769.699219 2325.460938 1767.160156 2322.789062 L 1762.859375 2318.269531 C 1760.308594 2315.601562 1760.378906 2311.378906 1762.988281 2308.78125 L 2079.171875 1995.230469 C 2081.789062 1992.628906 2081.851562 1988.410156 2079.308594 1985.738281 L 2077.199219 1983.519531 C 2074.660156 1980.851562 2070.441406 1980.699219 2067.71875 1983.191406 L 1738.789062 2283.339844 C 1736.058594 2285.820312 1731.839844 2285.671875 1729.300781 2283 L 1725 2278.480469 C 1722.460938 2275.808594 1722.519531 2271.578125 1725.140625 2268.988281 L 2041.320312 1955.441406 C 2043.941406 1952.839844 2044 1948.621094 2041.460938 1945.941406 L 2039.351562 1943.730469 C 2036.808594 1941.058594 2032.589844 1940.910156 2029.859375 1943.390625 L 1700.941406 2243.539062 C 1698.210938 2246.03125 1693.988281 2245.878906 1691.449219 2243.210938 L 1687.148438 2238.691406 C 1684.609375 2236.019531 1684.671875 2231.789062 1687.28125 2229.199219 L 2003.46875 1915.640625 C 2006.078125 1913.050781 2006.140625 1908.820312 2003.601562 1906.148438 L 2001.5 1903.941406 C 1998.949219 1901.269531 1994.730469 1901.121094 1992.011719 1903.601562 L 1663.078125 2203.75 C 1660.359375 2206.238281 1656.128906 2206.089844 1653.589844 2203.421875 L 1649.289062 2198.898438 C 1646.75 2196.21875 1646.808594 2192 1649.429688 2189.398438 L 1965.609375 1875.851562 C 1968.230469 1873.25 1968.289062 1869.03125 1965.75 1866.359375 L 1963.640625 1864.148438 C 1961.101562 1861.46875 1956.878906 1861.328125 1954.160156 1863.808594 L 1625.230469 2163.960938 C 1622.5 2166.449219 1618.28125 2166.300781 1615.738281 2163.628906 L 1611.441406 2159.109375 C 1608.898438 2156.429688 1608.960938 2152.210938 1611.578125 2149.609375 L 1927.761719 1836.058594 C 1930.371094 1833.460938 1930.441406 1829.238281 1927.890625 1826.570312 L 1925.789062 1824.359375 C 1923.25 1821.679688 1919.03125 1821.539062 1916.300781 1824.019531 L 1587.371094 2124.171875 C 1584.648438 2126.648438 1580.429688 2126.511719 1577.878906 2123.828125 L 1573.578125 2119.308594 C 1571.039062 2116.640625 1571.101562 2112.421875 1573.71875 2109.820312 L 1889.898438 1796.269531 C 1892.519531 1793.671875 1892.578125 1789.449219 1890.039062 1786.78125 L 1887.929688 1784.558594 C 1885.390625 1781.890625 1881.171875 1781.738281 1878.449219 1784.230469 L 1549.519531 2084.378906 C 1546.789062 2086.859375 1542.570312 2086.710938 1540.03125 2084.039062 L 1535.730469 2079.519531 C 1533.191406 2076.851562 1533.25 2072.628906 1535.871094 2070.03125 L 1852.050781 1756.480469 C 1854.671875 1753.878906 1854.730469 1749.660156 1852.191406 1746.988281 L 1850.078125 1744.769531 C 1847.539062 1742.101562 1843.320312 1741.949219 1840.589844 1744.441406 L 1511.660156 2044.589844 C 1508.941406 2047.070312 1504.71875 2046.921875 1502.179688 2044.25 L 1497.878906 2039.730469 C 1495.328125 2037.058594 1495.390625 2032.839844 1498.011719 2030.238281 L 1814.191406 1716.691406 C 1816.808594 1714.089844 1816.871094 1709.871094 1814.328125 1707.191406 L 1812.230469 1704.980469 C 1809.679688 1702.308594 1805.460938 1702.160156 1802.738281 1704.648438 L 1473.808594 2004.800781 C 1471.078125 2007.28125 1466.859375 2007.128906 1464.320312 2004.460938 L 1460.019531 1999.941406 C 1457.480469 1997.269531 1457.539062 1993.039062 1460.160156 1990.449219 L 1776.339844 1676.890625 C 1778.960938 1674.300781 1779.019531 1670.070312 1776.480469 1667.398438 L 1774.371094 1665.191406 C 1771.828125 1662.519531 1767.609375 1662.371094 1764.878906 1664.851562 L 1435.949219 1965.011719 C 1433.230469 1967.488281 1429.011719 1967.339844 1426.46875 1964.671875 L 1422.171875 1960.148438 C 1419.628906 1957.480469 1419.691406 1953.25 1422.300781 1950.660156 L 1738.480469 1637.101562 C 1741.101562 1634.511719 1741.160156 1630.28125 1738.621094 1627.609375 L 1736.519531 1625.398438 C 1733.980469 1622.730469 1729.75 1622.578125 1727.03125 1625.058594 L 1398.101562 1925.210938 C 1395.378906 1927.699219 1391.148438 1927.550781 1388.609375 1924.878906 L 1384.308594 1920.359375 C 1381.769531 1917.691406 1381.828125 1913.460938 1384.449219 1910.871094 L 1700.628906 1597.308594 C 1703.25 1594.71875 1703.308594 1590.488281 1700.769531 1587.820312 L 1698.660156 1585.609375 C 1696.121094 1582.929688 1691.898438 1582.789062 1689.171875 1585.269531 L 1360.238281 1885.421875 C 1357.519531 1887.910156 1353.300781 1887.761719 1350.761719 1885.089844 L 1346.460938 1880.558594 C 1343.921875 1877.890625 1343.980469 1873.671875 1346.601562 1871.070312 L 1662.78125 1557.519531 C 1665.390625 1554.921875 1665.449219 1550.699219 1662.910156 1548.03125 L 1660.808594 1545.808594 C 1658.269531 1543.140625 1654.050781 1542.988281 1651.320312 1545.480469 L 1322.390625 1845.628906 C 1319.671875 1848.121094 1315.449219 1847.96875 1312.898438 1845.300781 L 1308.601562 1840.769531 C 1306.058594 1838.101562 1306.128906 1833.878906 1308.738281 1831.28125 L 1624.921875 1517.730469 C 1627.539062 1515.128906 1627.601562 1510.910156 1625.058594 1508.238281 L 1622.949219 1506.019531 C 1620.410156 1503.351562 1616.191406 1503.199219 1613.46875 1505.691406 L 1284.539062 1805.839844 C 1281.808594 1808.320312 1277.589844 1808.171875 1275.050781 1805.5 L 1270.75 1800.980469 C 1268.210938 1798.308594 1268.269531 1794.089844 1270.890625 1791.488281 L 1587.070312 1477.941406 C 1589.679688 1475.339844 1589.75 1471.121094 1587.199219 1468.449219 L 1585.101562 1466.230469 C 1582.558594 1463.558594 1578.339844 1463.410156 1575.609375 1465.898438 L 1246.679688 1766.050781 C 1243.960938 1768.53125 1239.738281 1768.378906 1237.199219 1765.710938 L 1232.890625 1761.191406 C 1230.351562 1758.519531 1230.421875 1754.300781 1233.03125 1751.699219 L 1549.210938 1438.148438 C 1551.828125 1435.550781 1551.890625 1431.328125 1549.351562 1428.660156 L 1547.238281 1426.441406 C 1544.699219 1423.769531 1540.480469 1423.621094 1537.761719 1426.101562 L 1208.828125 1726.261719 C 1206.101562 1728.738281 1201.878906 1728.589844 1199.339844 1725.921875 L 1195.039062 1721.398438 C 1192.5 1718.730469 1192.558594 1714.5 1195.179688 1711.910156 L 1511.359375 1398.351562 C 1513.980469 1395.761719 1514.039062 1391.53125 1511.5 1388.859375 L 1509.390625 1386.648438 C 1506.851562 1383.980469 1502.628906 1383.828125 1499.898438 1386.308594 L 1170.980469 1686.460938 C 1168.25 1688.949219 1164.03125 1688.800781 1161.488281 1686.128906 L 1157.191406 1681.609375 C 1154.648438 1678.941406 1154.710938 1674.710938 1157.328125 1672.121094 L 1473.5 1358.558594 C 1476.121094 1355.96875 1476.179688 1351.738281 1473.640625 1349.070312 L 1471.53125 1346.859375 C 1468.988281 1344.191406 1464.769531 1344.039062 1462.050781 1346.519531 L 1133.121094 1646.671875 C 1130.390625 1649.160156 1126.171875 1649.011719 1123.628906 1646.339844 L 1119.328125 1641.820312 C 1116.789062 1639.140625 1116.851562 1634.921875 1119.46875 1632.320312 L 1435.648438 1318.769531 C 1438.269531 1316.171875 1438.328125 1311.949219 1435.789062 1309.28125 L 1433.679688 1307.070312 C 1431.140625 1304.398438 1426.921875 1304.25 1424.199219 1306.730469 L 1095.269531 1606.878906 C 1092.539062 1609.371094 1088.320312 1609.21875 1085.78125 1606.550781 L 1081.480469 1602.019531 C 1078.941406 1599.351562 1079 1595.128906 1081.621094 1592.53125 L 1397.800781 1278.980469 C 1400.410156 1276.378906 1400.480469 1272.160156 1397.929688 1269.488281 L 1395.828125 1267.269531 C 1393.28125 1264.601562 1389.058594 1264.449219 1386.339844 1266.941406 L 1057.410156 1567.089844 C 1054.691406 1569.570312 1050.46875 1569.429688 1047.921875 1566.75 L 1043.621094 1562.230469 C 1041.078125 1559.558594 1041.140625 1555.339844 1043.761719 1552.738281 L 1359.941406 1239.191406 C 1362.558594 1236.589844 1362.621094 1232.371094 1360.078125 1229.699219 L 1357.96875 1227.480469 C 1355.429688 1224.808594 1351.210938 1224.660156 1348.488281 1227.148438 L 1019.558594 1527.300781 C 1016.828125 1529.78125 1012.609375 1529.628906 1010.070312 1526.960938 L 1005.769531 1522.441406 C 1003.230469 1519.769531 1003.289062 1515.550781 1005.910156 1512.949219 L 1322.089844 1199.398438 C 1324.699219 1196.800781 1324.769531 1192.578125 1322.230469 1189.910156 L 1320.121094 1187.691406 C 1317.578125 1185.019531 1313.359375 1184.871094 1310.628906 1187.359375 L 981.703125 1487.511719 C 978.976562 1489.988281 974.757812 1489.839844 972.214844 1487.171875 L 967.914062 1482.648438 C 965.371094 1479.980469 965.4375 1475.761719 968.054688 1473.160156 L 1284.230469 1159.609375 C 1286.851562 1157.011719 1286.910156 1152.789062 1284.371094 1150.109375 L 1282.261719 1147.898438 C 1279.71875 1145.230469 1275.5 1145.078125 1272.78125 1147.570312 L 943.847656 1447.71875 C 941.125 1450.199219 936.902344 1450.050781 934.359375 1447.378906 L 930.0625 1442.859375 C 927.519531 1440.191406 927.578125 1435.960938 930.199219 1433.371094 L 1246.378906 1119.808594 C 1249 1117.21875 1249.058594 1112.988281 1246.519531 1110.320312 L 1244.410156 1108.109375 C 1241.871094 1105.441406 1237.648438 1105.289062 1234.921875 1107.769531 L 905.992188 1407.921875 C 903.269531 1410.410156 899.046875 1410.261719 896.507812 1407.589844 L 892.203125 1403.070312 C 889.664062 1400.398438 889.726562 1396.171875 892.34375 1393.578125 L 1208.519531 1080.019531 C 1211.140625 1077.429688 1211.199219 1073.199219 1208.660156 1070.53125 L 1206.550781 1068.320312 C 1204.011719 1065.648438 1199.789062 1065.5 1197.070312 1067.980469 L 868.140625 1368.128906 C 865.414062 1370.621094 861.195312 1370.46875 858.652344 1367.800781 L 854.351562 1363.28125 C 851.8125 1360.609375 851.871094 1356.378906 854.492188 1353.789062 L 1170.671875 1040.230469 C 1173.289062 1037.640625 1173.351562 1033.410156 1170.808594 1030.738281 L 1168.699219 1028.53125 C 1166.160156 1025.859375 1161.941406 1025.710938 1159.21875 1028.191406 L 830.285156 1328.339844 C 827.5625 1330.828125 823.339844 1330.679688 820.796875 1328.011719 L 816.496094 1323.480469 C 813.957031 1320.808594 814.015625 1316.589844 816.632812 1313.988281 L 1132.808594 1000.441406 C 1135.429688 997.839844 1135.488281 993.621094 1132.949219 990.949219 L 1130.851562 988.730469 C 1128.300781 986.058594 1124.078125 985.910156 1121.359375 988.398438 L 792.429688 1288.550781 C 789.707031 1291.039062 785.484375 1290.890625 782.945312 1288.21875 L 778.640625 1283.691406 C 776.101562 1281.019531 776.164062 1276.800781 778.78125 1274.199219 L 1094.960938 960.648438 C 1097.578125 958.050781 1097.640625 953.828125 1095.101562 951.160156 L 1092.988281 948.941406 C 1090.449219 946.269531 1086.230469 946.121094 1083.511719 948.609375 L 754.578125 1248.761719 C 751.851562 1251.238281 747.632812 1251.089844 745.089844 1248.421875 L 740.789062 1243.898438 C 738.246094 1241.230469 738.308594 1237.011719 740.925781 1234.410156 L 1057.109375 920.859375 C 1059.71875 918.261719 1059.78125 914.039062 1057.238281 911.371094 L 1054.851562 908.851562 C 1052.269531 906.140625 1047.96875 906.03125 1045.261719 908.609375 L 723.945312 1214.28125 C 721.234375 1216.859375 716.929688 1216.75 714.351562 1214.039062 L 705.089844 1204.300781 C 702.78125 1201.878906 702.570312 1198.210938 704.585938 1195.539062 "/>
<path fill="none" stroke-width="5.6693" stroke-linecap="butt" stroke-linejoin="miter" stroke="rgb(0%, 0%, 0%)" stroke-opacity="1" stroke-miterlimit="22.9256" d="M 7045.859375 28054.609375 C 7390.820312 28510.898438 10220.78125 32206.914062 11181.40625 31906.015625 C 14330 30919.804688 23084.492188 19308.710938 27129.101562 16610.390625 C 30190.390625 14568.085938 33378.789062 13233.515625 32925.78125 10747.5 C 32472.695312 8261.5625 30891.992188 7909.414062 30385.703125 8147.109375 C 30385.703125 8147.109375 24325.78125 17291.289062 21883.28125 17506.015625 C 19440.78125 17720.703125 18087.1875 16365.78125 18087.1875 16365.78125 L 17994.296875 16463.398438 C 17968.59375 16490.390625 17969.6875 16533.515625 17996.71875 16559.296875 L 21210 19616.09375 C 21236.992188 19641.796875 21238.085938 19684.882812 21212.382812 19711.914062 L 21150.585938 19776.914062 C 21125.195312 19803.59375 21083.007812 19805.117188 21055.703125 19780.195312 L 17766.40625 16778.710938 C 17739.21875 16753.90625 17696.992188 16755.390625 17671.601562 16782.109375 L 17628.59375 16827.304688 C 17603.085938 16853.984375 17603.789062 16896.210938 17629.882812 16922.1875 L 20791.71875 20057.695312 C 20817.890625 20083.710938 20818.515625 20125.898438 20793.085938 20152.617188 L 20771.992188 20174.804688 C 20746.601562 20201.484375 20704.414062 20203.007812 20677.1875 20178.085938 L 17387.890625 17176.601562 C 17360.585938 17151.796875 17318.398438 17153.28125 17293.007812 17180 L 17250 17225.195312 C 17224.609375 17251.914062 17225.195312 17294.21875 17251.40625 17320.117188 L 20413.203125 20455.585938 C 20439.414062 20481.601562 20440 20523.789062 20414.609375 20550.585938 L 20393.515625 20572.695312 C 20368.085938 20599.414062 20325.898438 20600.898438 20298.59375 20576.09375 L 17009.414062 17574.609375 C 16982.109375 17549.6875 16939.882812 17551.210938 16914.492188 17577.890625 L 16871.484375 17623.085938 C 16846.09375 17649.804688 16846.71875 17692.109375 16872.8125 17718.007812 L 20034.6875 20853.59375 C 20060.78125 20879.492188 20061.40625 20921.796875 20036.015625 20948.515625 L 20015 20970.585938 C 19989.492188 20997.304688 19947.304688 20998.789062 19920.117188 20973.984375 L 16630.78125 17972.5 C 16603.59375 17947.617188 16561.289062 17949.101562 16535.898438 17975.78125 L 16492.890625 18021.015625 C 16467.5 18047.8125 16468.085938 18090 16494.296875 18116.015625 L 19656.09375 21251.484375 C 19682.304688 21277.5 19682.890625 21319.6875 19657.5 21346.40625 L 19636.40625 21368.515625 C 19611.015625 21395.3125 19568.789062 21396.71875 19541.601562 21371.914062 L 16252.304688 18370.390625 C 16225 18345.507812 16182.8125 18346.992188 16157.382812 18373.710938 L 16114.414062 18418.90625 C 16088.984375 18445.703125 16089.609375 18487.890625 16115.78125 18513.90625 L 19277.617188 21649.414062 C 19303.710938 21675.390625 19304.414062 21717.617188 19278.90625 21744.296875 L 19257.890625 21766.40625 C 19232.5 21793.203125 19190.3125 21794.609375 19163.007812 21769.804688 L 15873.710938 18768.28125 C 15846.484375 18743.515625 15804.296875 18744.882812 15778.789062 18771.71875 L 15735.78125 18816.914062 C 15710.390625 18843.59375 15711.015625 18885.78125 15737.1875 18911.796875 L 18898.984375 22047.304688 C 18925.195312 22073.28125 18925.78125 22115.507812 18900.390625 22142.1875 L 18879.296875 22164.414062 C 18853.90625 22191.09375 18811.71875 22192.617188 18784.492188 22167.695312 L 15495.195312 19166.210938 C 15467.890625 19141.40625 15425.703125 19142.890625 15400.3125 19169.609375 L 15357.304688 19214.804688 C 15331.914062 19241.484375 15332.5 19283.710938 15358.710938 19309.6875 L 18520.507812 22445.195312 C 18546.71875 22471.210938 18547.304688 22513.398438 18521.914062 22540.117188 L 18500.78125 22562.304688 C 18475.390625 22588.984375 18433.203125 22590.507812 18405.898438 22565.585938 L 15116.601562 19564.101562 C 15089.414062 19539.296875 15047.1875 19540.78125 15021.796875 19567.5 L 14978.789062 19612.695312 C 14953.28125 19639.414062 14953.90625 19681.601562 14980.117188 19707.617188 L 18141.914062 22843.085938 C 18168.085938 22869.101562 18168.710938 22911.289062 18143.28125 22938.085938 L 18122.304688 22960.195312 C 18096.796875 22986.914062 18054.609375 22988.398438 18027.382812 22963.515625 L 14738.085938 19961.992188 C 14710.78125 19937.1875 14668.59375 19938.710938 14643.203125 19965.390625 L 14600.195312 20010.585938 C 14574.804688 20037.304688 14575.390625 20079.609375 14601.601562 20105.507812 L 17763.398438 23241.09375 C 17789.609375 23266.992188 17790.195312 23309.296875 17764.804688 23336.015625 L 17743.710938 23358.085938 C 17718.28125 23384.804688 17676.09375 23386.289062 17648.789062 23361.484375 L 14359.492188 20359.882812 C 14332.304688 20335.117188 14290.117188 20336.601562 14264.6875 20363.28125 L 14221.71875 20408.515625 C 14196.289062 20435.195312 14196.914062 20477.5 14223.007812 20503.398438 L 17384.804688 23638.984375 C 17411.015625 23664.882812 17411.601562 23707.1875 17386.210938 23733.90625 L 17365.195312 23756.015625 C 17339.804688 23782.695312 17297.5 23784.21875 17270.3125 23759.414062 L 13981.015625 20757.890625 C 13953.789062 20733.007812 13911.484375 20734.492188 13886.09375 20761.210938 L 13843.085938 20806.40625 C 13817.695312 20833.085938 13818.28125 20875.390625 13844.492188 20901.289062 L 17006.289062 24036.914062 C 17032.5 24062.8125 17033.085938 24105.117188 17007.695312 24131.796875 L 16986.601562 24153.90625 C 16961.210938 24180.703125 16918.984375 24182.109375 16891.71875 24157.304688 L 13602.382812 21155.78125 C 13575.195312 21130.898438 13533.007812 21132.382812 13507.617188 21159.101562 L 13464.609375 21204.414062 C 13439.21875 21231.09375 13439.804688 21273.28125 13466.015625 21299.296875 L 16627.8125 24434.804688 C 16653.90625 24460.78125 16654.492188 24503.007812 16629.101562 24529.6875 L 16608.085938 24551.914062 C 16582.695312 24578.59375 16540.507812 24580.117188 16513.203125 24555.195312 L 13223.90625 21553.710938 C 13196.71875 21528.789062 13154.492188 21530.3125 13128.984375 21556.992188 L 13086.015625 21602.304688 C 13060.585938 21628.984375 13061.289062 21671.210938 13087.382812 21697.1875 L 16249.21875 24832.695312 C 16275.390625 24858.710938 16276.015625 24900.898438 16250.585938 24927.617188 L 16229.492188 24949.804688 C 16204.101562 24976.484375 16161.914062 24978.007812 16134.6875 24953.085938 L 12845.390625 21951.601562 C 12818.085938 21926.796875 12775.898438 21928.28125 12750.507812 21955 L 12707.5 22000.195312 C 12682.109375 22026.914062 12682.695312 22069.101562 12708.90625 22095.117188 L 15870.703125 25230.585938 C 15896.796875 25256.601562 15897.5 25298.789062 15871.992188 25325.507812 L 15851.015625 25347.695312 C 15825.585938 25374.414062 15783.398438 25375.898438 15756.09375 25351.015625 L 12466.796875 22349.492188 C 12439.609375 22324.6875 12397.382812 22326.210938 12371.992188 22352.890625 L 12328.90625 22398.085938 C 12303.515625 22424.804688 12304.21875 22466.992188 12330.3125 22493.007812 L 15492.109375 25628.515625 C 15518.28125 25654.492188 15518.90625 25696.71875 15493.515625 25723.398438 L 15472.382812 25745.585938 C 15446.992188 25772.304688 15404.804688 25773.789062 15377.617188 25748.984375 L 12088.28125 22747.382812 C 12061.015625 22722.617188 12018.789062 22724.101562 11993.398438 22750.78125 L 11950.390625 22796.015625 C 11925 22822.695312 11925.585938 22865 11951.796875 22890.898438 L 15113.59375 26026.484375 C 15139.804688 26052.382812 15140.390625 26094.6875 15115 26121.40625 L 15093.90625 26143.515625 C 15068.515625 26170.195312 15026.289062 26171.71875 14998.984375 26146.914062 L 11709.804688 23145.390625 C 11682.5 23120.507812 11640.3125 23121.992188 11614.882812 23148.710938 L 11571.914062 23193.90625 C 11546.484375 23220.585938 11547.109375 23262.890625 11573.28125 23288.789062 L 14735 26424.414062 C 14761.210938 26450.3125 14761.796875 26492.617188 14736.40625 26519.296875 L 14715.3125 26541.40625 C 14689.882812 26568.085938 14647.695312 26569.609375 14620.507812 26544.804688 L 11331.210938 23543.28125 C 11303.90625 23518.398438 11261.71875 23519.882812 11236.289062 23546.601562 L 11193.28125 23591.796875 C 11167.890625 23618.59375 11168.515625 23660.78125 11194.6875 23686.796875 L 14356.484375 26822.304688 C 14382.695312 26848.28125 14383.28125 26890.507812 14357.890625 26917.1875 L 14336.796875 26939.296875 C 14311.40625 26966.015625 14269.21875 26967.5 14241.992188 26942.695312 L 10952.695312 23941.210938 C 10925.390625 23916.289062 10883.203125 23917.8125 10857.8125 23944.492188 L 10814.804688 23989.804688 C 10789.414062 24016.484375 10790 24058.710938 10816.210938 24084.6875 L 13978.007812 27220.195312 C 14004.101562 27246.210938 14004.804688 27288.398438 13979.296875 27315.117188 L 13958.28125 27337.304688 C 13932.8125 27363.984375 13890.585938 27365.507812 13863.398438 27340.585938 L 10574.101562 24339.101562 C 10546.914062 24314.296875 10504.6875 24315.703125 10479.21875 24342.5 L 10436.210938 24387.695312 C 10410.78125 24414.414062 10411.40625 24456.601562 10437.617188 24482.617188 L 13599.414062 27618.085938 C 13625.585938 27644.101562 13626.210938 27686.289062 13600.78125 27713.007812 L 13579.6875 27735.195312 C 13554.296875 27761.914062 13512.109375 27763.398438 13484.882812 27738.515625 L 10195.585938 24736.992188 C 10168.28125 24712.1875 10126.09375 24713.710938 10100.703125 24740.390625 L 10057.695312 24785.585938 C 10032.304688 24812.304688 10032.890625 24854.492188 10059.101562 24880.507812 L 13220.898438 28016.015625 C 13246.992188 28041.992188 13247.695312 28084.21875 13222.304688 28110.898438 L 13201.210938 28133.085938 C 13175.78125 28159.804688 13133.59375 28161.289062 13106.289062 28136.40625 L 9817.03125 25134.882812 C 9789.765625 25110.117188 9747.578125 25111.601562 9722.148438 25138.28125 L 9679.140625 25183.515625 C 9653.710938 25210.195312 9654.375 25252.382812 9680.546875 25278.398438 L 12842.304688 28413.90625 C 12868.515625 28439.882812 12869.101562 28482.109375 12843.710938 28508.90625 L 12822.617188 28531.015625 C 12797.1875 28557.695312 12755 28559.21875 12727.8125 28534.296875 L 9438.476562 25532.8125 C 9411.25 25508.007812 9369.023438 25509.492188 9343.59375 25536.210938 L 9300.625 25581.40625 C 9275.195312 25608.085938 9275.78125 25650.390625 9301.992188 25676.289062 L 12463.789062 28811.914062 C 12490 28837.8125 12490.585938 28880.117188 12465.195312 28906.796875 L 12444.101562 28928.90625 C 12418.710938 28955.585938 12376.484375 28957.109375 12349.21875 28932.304688 L 9059.921875 25930.78125 C 9032.695312 25905.898438 8990.46875 25907.382812 8965.078125 25934.101562 L 8922.03125 25979.296875 C 8896.640625 26006.015625 8897.265625 26048.28125 8923.4375 26074.21875 L 12085.195312 29209.804688 C 12111.40625 29235.703125 12111.992188 29278.007812 12086.601562 29304.6875 L 12065.507812 29326.796875 C 12040.117188 29353.515625 11997.890625 29355 11970.703125 29330.195312 L 8681.40625 26328.710938 C 8654.140625 26303.789062 8611.953125 26305.3125 8586.523438 26331.992188 L 8543.515625 26377.1875 C 8518.125 26403.90625 8518.710938 26446.210938 8544.921875 26472.109375 L 11706.71875 29607.695312 C 11732.890625 29633.59375 11733.515625 29675.898438 11708.085938 29702.617188 L 11686.992188 29724.6875 C 11661.601562 29751.40625 11619.414062 29752.890625 11592.1875 29728.085938 L 8302.851562 26726.601562 C 8275.625 26701.71875 8233.398438 26703.203125 8207.96875 26729.882812 L 8164.960938 26775.195312 C 8139.570312 26801.914062 8140.15625 26844.101562 8166.328125 26870.117188 L 11328.085938 30005.585938 C 11354.296875 30031.601562 11354.882812 30073.789062 11329.492188 30100.507812 L 11308.515625 30122.695312 C 11283.007812 30149.414062 11240.78125 30150.898438 11213.59375 30126.015625 L 7924.296875 27124.492188 C 7897.070312 27099.609375 7854.84375 27101.09375 7829.453125 27127.8125 L 7786.40625 27173.085938 C 7761.015625 27199.804688 7761.640625 27241.992188 7787.8125 27268.007812 L 10949.609375 30403.515625 C 10975.78125 30429.492188 10976.40625 30471.71875 10951.015625 30498.398438 L 10929.882812 30520.585938 C 10904.492188 30547.304688 10862.304688 30548.789062 10835.117188 30523.90625 L 7545.78125 27522.382812 C 7518.515625 27497.617188 7476.328125 27499.101562 7450.898438 27525.78125 L 7407.890625 27571.015625 C 7382.460938 27597.695312 7383.085938 27639.882812 7409.257812 27665.898438 L 10571.09375 30801.40625 C 10597.1875 30827.382812 10597.8125 30869.609375 10572.382812 30896.289062 L 10548.515625 30921.484375 C 10522.695312 30948.59375 10479.6875 30949.6875 10452.617188 30923.90625 L 7239.453125 27867.1875 C 7212.34375 27841.40625 7169.296875 27842.5 7143.515625 27869.609375 L 7050.898438 27966.992188 C 7027.8125 27991.210938 7025.703125 28027.890625 7045.859375 28054.609375 Z M 7045.859375 28054.609375 " transform="matrix(0.1, 0, 0, -0.1, 0, 4001)"/>
</svg>
