<?xml version="1.0" encoding="UTF-8"?>
<svg xmlns="http://www.w3.org/2000/svg" xmlns:xlink="http://www.w3.org/1999/xlink" width="2851" height="2251" viewBox="0 0 2851 2251">
<path fill-rule="nonzero" fill="rgb(0%, 0%, 0%)" fill-opacity="1" d="M 641.964844 5.441406 C 608.550781 25.921875 560.238281 99.738281 534.953125 168.871094 C 513.277344 228.609375 497.699219 306.699219 499.503906 347.660156 C 501.539062 391.191406 502.441406 392.46875 604.261719 482.078125 C 653.707031 525.609375 881.28125 726.160156 1109.761719 927.570312 C 1616.160156 1373.910156 1594.71875 1355.136719 1609.621094 1360.683594 C 1616.160156 1362.816406 1629.261719 1364.949219 1638.289062 1364.949219 C 1657.480469 1364.949219 1669.441406 1357.695312 1708.960938 1320.570312 C 1723.179688 1307.34375 1736.949219 1296.675781 1739.890625 1296.675781 C 1742.820312 1296.675781 1750.050781 1299.660156 1755.910156 1303.503906 C 1766.75 1310.328125 2035.199219 1578.304688 2033.839844 1580.867188 C 2031.578125 1585.132812 1840.128906 1611.164062 1741.921875 1620.976562 C 1491.769531 1645.300781 1209.550781 1645.300781 983.332031 1620.976562 C 757.558594 1596.226562 577.171875 1558.25 261.316406 1467.359375 C 211.648438 1453.277344 166.945312 1441.757812 161.753906 1441.757812 C 139.175781 1441.757812 101.925781 1467.789062 79.121094 1499.363281 C 65.125 1518.992188 44.128906 1561.238281 33.289062 1592.386719 C 0.101562 1686.691406 -8.703125 1813.425781 10.261719 1916.691406 C 29.453125 2019.527344 77.765625 2110.417969 128.789062 2139.007812 C 143.464844 2147.542969 264.480469 2178.691406 352.304688 2196.613281 C 764.109375 2281.957031 1197.140625 2266.59375 1639.191406 2151.808594 C 1840.808594 2099.75 2079.449219 2012.699219 2291.21875 1915.410156 C 2316.5 1903.460938 2338.859375 1894.074219 2340.890625 1894.074219 C 2342.921875 1894.074219 2347.890625 1897.914062 2351.71875 1902.183594 C 2369.109375 1922.238281 2452.640625 2003.3125 2492.609375 2039.15625 C 2618.359375 2151.808594 2710.25 2207.28125 2795.808594 2222.21875 C 2821.550781 2226.910156 2829.230469 2223.921875 2839.609375 2204.722656 C 2849.320312 2186.800781 2852.480469 2165.464844 2849.089844 2139.433594 C 2845.710938 2114.257812 2836 2098.042969 2816.128906 2086.09375 C 2784.519531 2066.039062 2716.789062 2012.273438 2674.800781 1973.441406 C 2622.878906 1925.652344 2577.71875 1876.578125 2533.238281 1820.253906 C 2487.410156 1762.21875 2491.25 1769.472656 2495.539062 1750.273438 C 2516.761719 1656.394531 2495.089844 1549.289062 2448.578125 1518.140625 C 2428.480469 1504.910156 2411.78125 1503.632812 2376.109375 1513.871094 C 2358.5 1518.992188 2341.109375 1522.832031 2337.269531 1522.832031 C 2332.761719 1522.832031 2228.449219 1422.128906 2016 1213.039062 C 1736.949219 938.660156 1686.378906 890.441406 1570.328125 788.03125 C 1498.308594 724.449219 1319.949219 567.421875 1174.109375 438.980469 C 1028.261719 310.539062 857.125 159.480469 793.910156 104.011719 C 690.054688 12.691406 677.414062 2.449219 665.21875 1.171875 C 657.320312 0.320312 647.382812 2.03125 641.964844 5.441406 Z M 641.964844 5.441406 "/>
</svg>
