<?xml version="1.0" encoding="UTF-8"?>
<svg xmlns="http://www.w3.org/2000/svg" xmlns:xlink="http://www.w3.org/1999/xlink" width="2000" height="2000" viewBox="0 0 2000 2000">
<path fill-rule="nonzero" fill="rgb(0%, 0%, 0%)" fill-opacity="1" d="M 837.941406 1313.109375 L 881.742188 530.988281 C 824.59375 573.628906 758.082031 613.691406 689.089844 655.238281 C 473.273438 785.230469 232.570312 930.21875 208.769531 1199.714844 L 215.121094 1313.109375 L 299.914062 1426.667969 L 753.148438 1426.667969 L 837.941406 1313.109375 "/>
<path fill-rule="nonzero" fill="rgb(0%, 0%, 0%)" fill-opacity="1" d="M 200.851562 1058.3125 C 279.859375 855.101562 483.011719 732.730469 668.464844 621.03125 C 748.175781 573.019531 824.53125 527.019531 884.691406 478.261719 L 899.609375 211.910156 L 153.453125 211.910156 L 200.851562 1058.3125 "/>
<path fill-rule="nonzero" fill="rgb(0%, 0%, 0%)" fill-opacity="1" d="M 620.875 1466.667969 L 432.1875 1466.667969 L 432.1875 1633.226562 C 432.1875 1647.839844 444.21875 1659.867188 458.828125 1659.867188 L 594.234375 1659.867188 C 608.847656 1659.867188 620.875 1647.839844 620.875 1633.226562 L 620.875 1466.667969 "/>
<path fill-rule="nonzero" fill="rgb(0%, 0%, 0%)" fill-opacity="1" d="M 747.253906 1466.667969 L 660.875 1466.667969 L 660.875 1633.226562 C 660.875 1669.921875 630.925781 1699.867188 594.234375 1699.867188 L 458.828125 1699.867188 C 422.136719 1699.867188 392.1875 1669.921875 392.1875 1633.226562 L 392.1875 1466.667969 L 305.808594 1466.667969 L 305.808594 1788.191406 C 305.808594 1802.804688 317.839844 1814.832031 332.449219 1814.832031 L 720.613281 1814.832031 C 735.226562 1814.832031 747.253906 1802.804688 747.253906 1788.191406 L 747.253906 1466.667969 "/>
<path fill-rule="nonzero" fill="rgb(0%, 0%, 0%)" fill-opacity="1" d="M 1676.859375 622.640625 L 1171.078125 622.640625 C 1144.859375 862.050781 1100.449219 996.429688 1063.289062 1108.847656 C 1028.589844 1213.816406 1000.371094 1299.203125 1000.371094 1434.519531 C 1000.371094 1499.429688 1018.550781 1567.277344 1046.648438 1628.714844 C 1076.820312 1694.660156 1118.25 1752.976562 1160.820312 1792.265625 L 1687.109375 1792.265625 C 1729.691406 1752.976562 1771.121094 1694.660156 1801.289062 1628.714844 C 1829.390625 1567.277344 1847.570312 1499.429688 1847.570312 1434.519531 C 1847.570312 1299.203125 1819.339844 1213.816406 1784.648438 1108.847656 C 1747.488281 996.429688 1703.078125 862.050781 1676.859375 622.640625 "/>
<path fill-rule="nonzero" fill="rgb(0%, 0%, 0%)" fill-opacity="1" d="M 1610.46875 582.640625 L 1610.46875 545.660156 C 1610.46875 525.359375 1593.78125 508.679688 1573.480469 508.679688 L 1274.460938 508.679688 C 1254.160156 508.679688 1237.46875 525.359375 1237.46875 545.660156 L 1237.46875 582.640625 L 1610.46875 582.640625 "/>
<path fill-rule="nonzero" fill="rgb(0%, 0%, 0%)" fill-opacity="1" d="M 1457.75 468.679688 L 1457.75 408.941406 L 1457.808594 408.941406 C 1457.808594 407.5 1457.96875 406.03125 1458.300781 404.570312 C 1462.46875 386 1468.980469 368.441406 1481.449219 353.449219 C 1493.910156 338.460938 1511.601562 326.859375 1537.589844 320.679688 C 1539.519531 320.070312 1541.558594 319.730469 1543.691406 319.730469 L 1824.101562 319.730469 L 1824.101562 252.46875 C 1824.101562 215.519531 1793.800781 185.210938 1756.839844 185.210938 L 1138.929688 185.210938 L 1138.929688 319.730469 L 1263.359375 319.730469 L 1263.359375 319.769531 C 1264.289062 319.769531 1265.230469 319.828125 1266.179688 319.96875 C 1291.511719 323.640625 1311.800781 332.898438 1327.390625 347.339844 C 1342.710938 361.539062 1352.960938 380.289062 1358.519531 403.25 C 1359.050781 405.050781 1359.339844 406.960938 1359.339844 408.941406 L 1359.339844 468.679688 L 1457.75 468.679688 "/>
</svg>
